<mxfile host="app.diagrams.net" agent="Mozilla/5.0 (Windows NT 10.0; Win64; x64) AppleWebKit/537.36 (KHTML, like Gecko) Chrome/131.0.0.0 Safari/537.36 Edg/131.0.0.0" version="25.0.0">
  <diagram name="Page-1" id="TkxhIu8EkljFIeXiGlAu">
    <mxGraphModel dx="1569" dy="1490" grid="1" gridSize="10" guides="1" tooltips="1" connect="1" arrows="1" fold="1" page="1" pageScale="1" pageWidth="850" pageHeight="1100" math="0" shadow="0">
      <root>
        <mxCell id="0" />
        <mxCell id="1" parent="0" />
        <mxCell id="BeyvJ7nmX2ce7AzHUm29-1" value="" style="edgeStyle=orthogonalEdgeStyle;rounded=0;orthogonalLoop=1;jettySize=auto;html=1;" parent="1" source="BeyvJ7nmX2ce7AzHUm29-2" target="BeyvJ7nmX2ce7AzHUm29-4" edge="1">
          <mxGeometry relative="1" as="geometry" />
        </mxCell>
        <mxCell id="BeyvJ7nmX2ce7AzHUm29-2" value="&lt;font data-font-src=&quot;https://fonts.googleapis.com/css?family=Sarabun&quot; face=&quot;Sarabun&quot;&gt;Start&lt;/font&gt;" style="ellipse;whiteSpace=wrap;html=1;" parent="1" vertex="1">
          <mxGeometry x="-539.0000000000001" y="-1000" width="130" height="30" as="geometry" />
        </mxCell>
        <mxCell id="BeyvJ7nmX2ce7AzHUm29-3" value="" style="edgeStyle=orthogonalEdgeStyle;rounded=0;orthogonalLoop=1;jettySize=auto;html=1;" parent="1" source="BeyvJ7nmX2ce7AzHUm29-4" target="BeyvJ7nmX2ce7AzHUm29-6" edge="1">
          <mxGeometry relative="1" as="geometry" />
        </mxCell>
        <mxCell id="BeyvJ7nmX2ce7AzHUm29-4" value="กำหนดตัวแปร input" style="rounded=0;whiteSpace=wrap;html=1;" parent="1" vertex="1">
          <mxGeometry x="-539.0000000000001" y="-940" width="130" height="40" as="geometry" />
        </mxCell>
        <mxCell id="vNh0bRN6AWmluAGAxftW-2" value="" style="edgeStyle=orthogonalEdgeStyle;rounded=0;orthogonalLoop=1;jettySize=auto;html=1;" edge="1" parent="1" source="BeyvJ7nmX2ce7AzHUm29-6" target="vNh0bRN6AWmluAGAxftW-1">
          <mxGeometry relative="1" as="geometry" />
        </mxCell>
        <mxCell id="BeyvJ7nmX2ce7AzHUm29-6" value="กำหนดตัวแปร n" style="rounded=0;whiteSpace=wrap;html=1;" parent="1" vertex="1">
          <mxGeometry x="-539.0000000000001" y="-870" width="130" height="40" as="geometry" />
        </mxCell>
        <mxCell id="BeyvJ7nmX2ce7AzHUm29-7" value="" style="edgeStyle=orthogonalEdgeStyle;rounded=0;orthogonalLoop=1;jettySize=auto;html=1;" parent="1" source="BeyvJ7nmX2ce7AzHUm29-8" target="BeyvJ7nmX2ce7AzHUm29-13" edge="1">
          <mxGeometry relative="1" as="geometry" />
        </mxCell>
        <mxCell id="BeyvJ7nmX2ce7AzHUm29-8" value="กรอกตัวแปร input" style="rounded=0;whiteSpace=wrap;html=1;shape=parallelogram;perimeter=parallelogramPerimeter;fixedSize=1;" parent="1" vertex="1">
          <mxGeometry x="-540.0000000000001" y="-670" width="130" height="40" as="geometry" />
        </mxCell>
        <mxCell id="BeyvJ7nmX2ce7AzHUm29-9" value="" style="edgeStyle=orthogonalEdgeStyle;rounded=0;orthogonalLoop=1;jettySize=auto;html=1;" parent="1" source="BeyvJ7nmX2ce7AzHUm29-10" target="BeyvJ7nmX2ce7AzHUm29-8" edge="1">
          <mxGeometry relative="1" as="geometry" />
        </mxCell>
        <mxCell id="BeyvJ7nmX2ce7AzHUm29-10" value="" style="ellipse;whiteSpace=wrap;html=1;aspect=fixed;" parent="1" vertex="1">
          <mxGeometry x="-485" y="-730" width="20" height="20" as="geometry" />
        </mxCell>
        <mxCell id="BeyvJ7nmX2ce7AzHUm29-11" style="edgeStyle=orthogonalEdgeStyle;rounded=0;orthogonalLoop=1;jettySize=auto;html=1;entryX=0;entryY=0.5;entryDx=0;entryDy=0;" parent="1" source="BeyvJ7nmX2ce7AzHUm29-13" target="BeyvJ7nmX2ce7AzHUm29-10" edge="1">
          <mxGeometry relative="1" as="geometry">
            <Array as="points">
              <mxPoint x="-600" y="-550" />
              <mxPoint x="-600" y="-720" />
            </Array>
          </mxGeometry>
        </mxCell>
        <mxCell id="BeyvJ7nmX2ce7AzHUm29-12" style="edgeStyle=orthogonalEdgeStyle;rounded=0;orthogonalLoop=1;jettySize=auto;html=1;entryX=0.5;entryY=0;entryDx=0;entryDy=0;" parent="1" source="BeyvJ7nmX2ce7AzHUm29-13" target="BeyvJ7nmX2ce7AzHUm29-15" edge="1">
          <mxGeometry relative="1" as="geometry" />
        </mxCell>
        <mxCell id="BeyvJ7nmX2ce7AzHUm29-13" value="กรอก -1 หรือไม่" style="rhombus;whiteSpace=wrap;html=1;" parent="1" vertex="1">
          <mxGeometry x="-539" y="-590" width="128" height="80" as="geometry" />
        </mxCell>
        <mxCell id="BeyvJ7nmX2ce7AzHUm29-14" value="" style="edgeStyle=orthogonalEdgeStyle;rounded=0;orthogonalLoop=1;jettySize=auto;html=1;" parent="1" source="BeyvJ7nmX2ce7AzHUm29-15" target="BeyvJ7nmX2ce7AzHUm29-17" edge="1">
          <mxGeometry relative="1" as="geometry" />
        </mxCell>
        <mxCell id="BeyvJ7nmX2ce7AzHUm29-15" value="ปริ้นค่า index ที่วน" style="rounded=0;whiteSpace=wrap;html=1;shape=parallelogram;perimeter=parallelogramPerimeter;fixedSize=1;" parent="1" vertex="1">
          <mxGeometry x="-540.0000000000001" y="-480" width="130" height="40" as="geometry" />
        </mxCell>
        <mxCell id="BeyvJ7nmX2ce7AzHUm29-16" value="" style="edgeStyle=orthogonalEdgeStyle;rounded=0;orthogonalLoop=1;jettySize=auto;html=1;" parent="1" source="BeyvJ7nmX2ce7AzHUm29-17" target="BeyvJ7nmX2ce7AzHUm29-18" edge="1">
          <mxGeometry relative="1" as="geometry" />
        </mxCell>
        <mxCell id="BeyvJ7nmX2ce7AzHUm29-17" value="ปริ้นค่า input" style="rounded=0;whiteSpace=wrap;html=1;shape=parallelogram;perimeter=parallelogramPerimeter;fixedSize=1;" parent="1" vertex="1">
          <mxGeometry x="-540.0000000000001" y="-400" width="130" height="40" as="geometry" />
        </mxCell>
        <mxCell id="BeyvJ7nmX2ce7AzHUm29-18" value="&lt;font face=&quot;Sarabun&quot;&gt;END&lt;/font&gt;" style="ellipse;whiteSpace=wrap;html=1;" parent="1" vertex="1">
          <mxGeometry x="-540.0000000000001" y="-310" width="130" height="30" as="geometry" />
        </mxCell>
        <mxCell id="BeyvJ7nmX2ce7AzHUm29-19" value="F" style="text;html=1;align=center;verticalAlign=middle;resizable=0;points=[];autosize=1;strokeColor=none;fillColor=none;" parent="1" vertex="1">
          <mxGeometry x="-560" y="-580" width="30" height="30" as="geometry" />
        </mxCell>
        <mxCell id="BeyvJ7nmX2ce7AzHUm29-20" value="T" style="text;html=1;align=center;verticalAlign=middle;resizable=0;points=[];autosize=1;strokeColor=none;fillColor=none;" parent="1" vertex="1">
          <mxGeometry x="-465" y="-520" width="30" height="30" as="geometry" />
        </mxCell>
        <mxCell id="vNh0bRN6AWmluAGAxftW-3" value="" style="edgeStyle=orthogonalEdgeStyle;rounded=0;orthogonalLoop=1;jettySize=auto;html=1;" edge="1" parent="1" source="vNh0bRN6AWmluAGAxftW-1" target="BeyvJ7nmX2ce7AzHUm29-10">
          <mxGeometry relative="1" as="geometry" />
        </mxCell>
        <mxCell id="vNh0bRN6AWmluAGAxftW-1" value="กรอกจำนวนรอบ (n)" style="rounded=0;whiteSpace=wrap;html=1;shape=parallelogram;perimeter=parallelogramPerimeter;fixedSize=1;" vertex="1" parent="1">
          <mxGeometry x="-539.0000000000001" y="-800" width="130" height="40" as="geometry" />
        </mxCell>
      </root>
    </mxGraphModel>
  </diagram>
</mxfile>
